<svg xmlns="http://www.w3.org/2000/svg" enable-background="new 0 0 64 64" viewBox="0 0 64 64" id="cloudy"><path fill="#C2CBCE" d="M53,29c-0.9,0-1.8,0.2-2.7,0.5C48.9,25.7,45.3,23,41,23c-5.5,0-10,4.5-10,10c0,0.1,0,0.2,0,0.4c-0.6-0.2-1.3-0.4-2-0.4c-3.3,0-6,2.7-6,6s2.7,6,6,6h24c4.4,0,8-3.6,8-8S57.4,29,53,29z"></path><path fill="#333" d="M53,46H29c-3.9,0-7-3.1-7-7s3.1-7,7-7c0.3,0,0.7,0,1,0.1C30.5,26.4,35.2,22,41,22c4.2,0,8.1,2.5,9.9,6.3c0.7-0.2,1.4-0.3,2.1-0.3c5,0,9,4,9,9S58,46,53,46z M29,34c-2.8,0-5,2.2-5,5s2.2,5,5,5h24c3.9,0,7-3.1,7-7s-3.1-7-7-7c-0.8,0-1.6,0.1-2.3,0.4l-0.9,0.3l-0.3-0.9C48.1,26.3,44.7,24,41,24c-5,0-9,4-9,9l0.1,1.8l-1.4-0.5C30.1,34.1,29.6,34,29,34z"></path><path fill="#D9DFE1" d="M26,41c0-2.8,2.2-5,5-5c0.6,0,1.1,0.1,1.7,0.3l1.4,0.5l0-1.5l0-0.3c0-5,4-9,9-9c1.9,0,3.7,0.6,5.3,1.7C46.6,25.4,43.9,24,41,24c-5,0-9,4-9,9l0,0.3l0,1.5l-1.4-0.5C30.1,34.1,29.6,34,29,34c-2.8,0-5,2.2-5,5c0,1.9,1.1,3.5,2.6,4.4C26.2,42.7,26,41.9,26,41z"></path><g><path fill="#A1A8AC" d="M56.8,31.2c0.7,1.1,1.2,2.4,1.2,3.8c0,3.9-3.1,7-7,7H27c-0.9,0-1.7-0.2-2.4-0.6c0.8,1.6,2.5,2.6,4.4,2.6h24c3.9,0,7-3.1,7-7C60,34.6,58.7,32.4,56.8,31.2z"></path></g><g><circle cx="21" cy="32" r="9" fill="#ECBE13"></circle><path fill="#333" d="M21,42c-5.5,0-10-4.5-10-10s4.5-10,10-10s10,4.5,10,10S26.5,42,21,42z M21,24c-4.4,0-8,3.6-8,8s3.6,8,8,8s8-3.6,8-8S25.4,24,21,24z"></path><path fill="#ECBE13" d="M21,20L21,20c-1.1,0-2-0.9-2-2v-2c0-1.1,0.9-2,2-2h0c1.1,0,2,0.9,2,2v2C23,19.1,22.1,20,21,20z"></path><path fill="#333" d="M21,21c-1.7,0-3-1.3-3-3v-2c0-1.7,1.3-3,3-3s3,1.3,3,3v2C24,19.7,22.7,21,21,21z M21,15c-0.6,0-1,0.4-1,1v2c0,0.6,0.4,1,1,1s1-0.4,1-1v-2C22,15.4,21.6,15,21,15z"></path><path fill="#ECBE13" d="M9,32L9,32c0,1.1-0.9,2-2,2H5c-1.1,0-2-0.9-2-2v0c0-1.1,0.9-2,2-2h2C8.1,30,9,30.9,9,32z"></path><path fill="#333" d="M7,35H5c-1.7,0-3-1.3-3-3s1.3-3,3-3h2c1.7,0,3,1.3,3,3S8.7,35,7,35z M5,31c-0.6,0-1,0.4-1,1s0.4,1,1,1h2c0.6,0,1-0.4,1-1s-0.4-1-1-1H5z"></path><g><path fill="#ECBE13" d="M12.5,40.5L12.5,40.5c0.8,0.8,0.8,2,0,2.8l-1.4,1.4c-0.8,0.8-2,0.8-2.8,0l0,0c-0.8-0.8-0.8-2,0-2.8l1.4-1.4C10.5,39.7,11.7,39.7,12.5,40.5z"></path><path fill="#333" d="M9.7,46.3c-0.8,0-1.6-0.3-2.1-0.9c-1.2-1.2-1.2-3.1,0-4.2L9,39.8c1.2-1.2,3.1-1.2,4.2,0l0,0v0l0,0c0.6,0.6,0.9,1.3,0.9,2.1s-0.3,1.6-0.9,2.1l-1.4,1.4C11.2,46,10.5,46.3,9.7,46.3z M11.1,40.9c-0.3,0-0.5,0.1-0.7,0.3L9,42.6c-0.4,0.4-0.4,1,0,1.4c0.4,0.4,1,0.4,1.4,0l1.4-1.4c0.2-0.2,0.3-0.4,0.3-0.7s-0.1-0.5-0.3-0.7v0C11.6,41,11.4,40.9,11.1,40.9z"></path></g><g><path fill="#ECBE13" d="M33.7,19.3L33.7,19.3c0.8,0.8,0.8,2,0,2.8l-1.4,1.4c-0.8,0.8-2,0.8-2.8,0l0,0c-0.8-0.8-0.8-2,0-2.8l1.4-1.4C31.7,18.5,32.9,18.5,33.7,19.3z"></path><path fill="#333" d="M30.9,25.1c-0.8,0-1.5-0.3-2.1-0.9c-0.6-0.6-0.9-1.3-0.9-2.1s0.3-1.6,0.9-2.1l1.4-1.4c1.1-1.1,3.1-1.1,4.2,0l0,0l0,0c1.2,1.2,1.2,3.1,0,4.2L33,24.2C32.4,24.8,31.7,25.1,30.9,25.1z M32.3,19.7c-0.3,0-0.5,0.1-0.7,0.3l-1.4,1.4c-0.2,0.2-0.3,0.4-0.3,0.7s0.1,0.5,0.3,0.7c0.4,0.4,1,0.4,1.4,0l1.4-1.4c0.4-0.4,0.4-1,0-1.4l0,0C32.8,19.8,32.6,19.7,32.3,19.7z"></path></g><g><path fill="#ECBE13" d="M8.3,19.3L8.3,19.3c0.8-0.8,2-0.8,2.8,0l1.4,1.4c0.8,0.8,0.8,2,0,2.8l0,0c-0.8,0.8-2,0.8-2.8,0l-1.4-1.4C7.5,21.3,7.5,20.1,8.3,19.3z"></path><path fill="#333" d="M11.1,25.1c-0.8,0-1.5-0.3-2.1-0.9l-1.4-1.4c-1.2-1.2-1.2-3.1,0-4.2l0,0l0,0l0,0c1.1-1.1,3.1-1.1,4.2,0l1.4,1.4c0.6,0.6,0.9,1.3,0.9,2.1s-0.3,1.6-0.9,2.1C12.6,24.8,11.9,25.1,11.1,25.1z M9.7,19.7c-0.3,0-0.5,0.1-0.7,0.3l0,0c-0.4,0.4-0.4,1,0,1.4l1.4,1.4c0.4,0.4,1,0.4,1.4,0c0.2-0.2,0.3-0.4,0.3-0.7s-0.1-0.5-0.3-0.7L10.4,20C10.2,19.8,10,19.7,9.7,19.7z"></path></g></g><g><path fill="#E8F3F8" d="M46,33c-0.9,0-1.8,0.2-2.7,0.5C41.9,29.7,38.3,27,34,27c-5.5,0-10,4.5-10,10c0,0.1,0,0.2,0,0.4c-0.6-0.2-1.3-0.4-2-0.4c-3.3,0-6,2.7-6,6s2.7,6,6,6h24c4.4,0,8-3.6,8-8S50.4,33,46,33z"></path><path fill="#333" d="M46,50H22c-3.9,0-7-3.1-7-7s3.1-7,7-7c0.3,0,0.7,0,1,0.1C23.5,30.4,28.2,26,34,26c4.2,0,8.1,2.5,9.9,6.3c0.7-0.2,1.4-0.3,2.1-0.3c5,0,9,4,9,9S51,50,46,50z M22,38c-2.8,0-5,2.2-5,5s2.2,5,5,5h24c3.9,0,7-3.1,7-7s-3.1-7-7-7c-0.8,0-1.6,0.1-2.3,0.4l-0.9,0.3l-0.3-0.9C41.1,30.3,37.7,28,34,28c-5,0-9,4-9,9l0.1,1.8l-1.4-0.5C23.1,38.1,22.6,38,22,38z"></path><path fill="#F4F9FC" d="M19,45c0-2.8,2.2-5,5-5c0.6,0,1.1,0.1,1.7,0.3l1.4,0.5l0-1.5l0-0.3c0-5,4-9,9-9c1.9,0,3.7,0.6,5.3,1.7C39.6,29.4,36.9,28,34,28c-5,0-9,4-9,9l0,0.3l0,1.5l-1.4-0.5C23.1,38.1,22.6,38,22,38c-2.8,0-5,2.2-5,5c0,1.9,1.1,3.5,2.6,4.4C19.2,46.7,19,45.9,19,45z"></path><g><path fill="#C1CACF" d="M49.8,35.2c0.7,1.1,1.2,2.4,1.2,3.8c0,3.9-3.1,7-7,7H20c-0.9,0-1.7-0.2-2.4-0.6c0.8,1.6,2.5,2.6,4.4,2.6h24c3.9,0,7-3.1,7-7C53,38.6,51.7,36.4,49.8,35.2z"></path></g></g></svg>